<svg width="24" height="60" viewBox="0 0 24 60" fill="none" xmlns="http://www.w3.org/2000/svg">
<g clip-path="url(#clip0_644_630)">
<path d="M6.30136 16.313C6.05074 15.8682 5.6211 15.1869 5.29888 14.6664C5.03632 14.2122 4.95278 14.2122 5.06019 13.9378C5.39435 13.1902 5.43015 12.3858 5.97913 11.818C6.51618 11.2408 6.25362 11.0326 6.3133 10.2283C6.27749 9.56586 6.33717 9.51854 6.7668 9.16841C7.75735 8.15587 7.97217 8.80882 9.49977 8.53439C9.49977 8.33567 9.24915 7.4083 8.6405 7.72057C8.06765 7.96661 7.45899 8.26943 6.93388 7.97607C6.59972 7.65433 6.40877 7.39883 6.28943 6.93515C6.20589 6.52824 5.80012 6.58502 5.60917 6.37683C5.38242 6.05509 6.06267 5.64818 5.99107 5.32644C5.81205 4.77759 5.34661 4.2382 5.40629 3.68934C5.50176 3.09318 5.97913 2.74305 6.46844 2.35506C7.00549 1.9103 8.07958 1.38038 8.81951 1.11541C9.4759 0.594948 9.86974 0.415152 10.6932 0.0271694C11.2183 -0.0863864 11.4809 0.0934103 11.8389 0.311059C12.1373 0.386763 12.6146 0.244818 12.9249 0.453004C13.3904 0.717967 13.3784 1.18165 13.9513 1.3993C14.1542 1.70212 14.3571 1.81567 14.727 1.95762C14.906 2.06171 14.8822 2.24151 15.0254 2.40238C15.3953 2.79036 15.1686 3.47169 15.2163 3.93538C15.1805 4.15303 15.3357 4.87222 15.1567 5.08986C15.0134 5.25074 14.5599 5.14664 14.3332 5.20342C14.0706 5.31698 13.9036 5.55355 13.5455 5.63872C12.2924 6.11187 12.555 7.56917 13.3546 8.2505C14.918 9.07378 16.5172 9.9633 17.7703 11.061C18.0328 11.2597 18.0328 11.2976 18.2477 11.6193C18.8802 12.6224 19.4053 13.4173 20.0736 14.4109C20.5152 15.0165 20.6345 15.3761 20.9806 15.9534C21.267 16.5117 21.8041 17.1836 21.5654 17.7135C21.279 18.1204 20.6942 18.603 20.181 18.9531C19.7036 19.2749 19.2621 19.6061 18.8086 19.9373C18.5102 20.1739 18.3312 20.2685 18.3551 20.5997C18.8682 22.5112 19.8707 24.2619 20.2049 26.2018C20.2884 27.0913 20.6823 27.6496 20.9687 28.454C21.3148 29.3246 21.3983 30.0343 21.6728 30.9427C22.0547 32.3906 22.4844 33.5924 22.6514 34.9929C22.6992 35.2295 22.9617 35.5417 22.9379 35.7405C22.9259 36.0054 22.2576 36.1095 22.2099 36.365C22.4366 37.4911 23.3436 38.9579 23.5704 40.0461C23.5704 40.5666 23.5107 41.3993 23.7971 41.9103C24.3222 42.3267 23.642 42.6579 23.0691 42.6106C22.6634 42.6484 22.2695 42.6106 22.3531 42.8472C22.4844 43.6421 22.5321 44.7871 22.7469 45.5346C22.9737 46.1971 23.451 46.7932 23.5823 47.3705C22.8543 48.118 20.5391 47.7395 19.5485 47.8436C19.4769 48.3546 19.9423 49.4429 20.2168 49.9255C17.1378 50.0012 8.24666 49.9539 5.34661 49.9917C4.91698 49.9633 4.7499 50.058 4.65442 49.9349C4.52314 49.7741 4.29639 49.3577 4.58281 49.14C4.8215 48.8656 5.21534 48.6101 5.29888 48.3925C5.33468 48.2411 5.09599 48.1275 4.84537 48.014C3.66387 47.3989 5.14373 47.0298 5.31081 46.5945C5.27501 46.4526 4.69022 46.4999 4.69022 46.216C4.63055 45.9794 4.71409 45.7239 4.52314 45.6198C3.75934 45.3075 2.75686 45.194 1.94532 44.8628C1.03831 44.6262 1.46795 44.4653 1.51568 43.9638C1.49181 43.7935 1.30087 43.6704 1.33667 43.5569C1.46795 43.3298 2.54204 42.109 2.93587 41.617C3.2581 41.3709 2.97168 41.2668 2.78073 40.964C2.66138 40.7369 2.8762 40.2922 2.81653 40.1407C2.50624 39.8379 1.05024 39.573 0.537066 39.3364C0.202904 39.2134 1.99117e-05 39.2039 -0.0238488 39.062C-0.095455 38.7592 0.214838 38.6172 0.358051 38.4658C0.346116 38.3333 -0.226733 38.0589 0.0716261 37.8318C0.226773 37.652 0.584804 37.5668 0.680278 37.3965C0.787688 37.2262 0.572869 36.9517 0.680278 36.8287C0.811556 36.6773 1.28893 36.7435 1.37247 36.63C1.45601 36.5543 1.57536 36.3556 1.76631 36.0906C2.27948 35.2862 2.88814 34.6333 3.19843 33.9236C3.43712 33.2422 3.71161 32.6745 3.61613 31.9458C3.61613 31.3875 3.59226 30.6305 3.58033 30.2425C3.58033 30.0154 3.58033 29.9397 3.41325 29.8166C3.2581 29.7125 3.00748 29.5233 2.98361 29.3435C2.92394 29.0501 3.27003 28.7095 3.28197 28.5297C3.36551 27.9051 3.12682 26.7222 3.37744 26.0125C3.47292 25.7665 3.61613 25.3785 3.6758 25.2176C3.84288 24.3565 3.6758 22.9276 3.80708 22.0475C3.96223 21.5838 3.97416 20.6375 4.29639 20.1644C4.49927 19.8332 5.01245 19.237 5.11986 18.8774C5.19147 18.6409 5.2392 18.1866 5.33468 18.0447C5.45402 17.846 6.08654 17.4485 6.3133 17.1362C6.3849 16.9659 6.30136 16.5306 6.28943 16.4076L6.26556 16.3414L6.30136 16.313Z" fill="white"/>
</g>
<defs>
<clipPath id="clip0_644_630">
<rect width="24" height="60" fill="white"/>
</clipPath>
</defs>
</svg>
