<svg width="24" height="24" viewBox="0 0 24 24" fill="none" xmlns="http://www.w3.org/2000/svg">
<path d="M12.9795 16.685H13.3161C13.3273 16.685 13.3405 16.6605 13.3405 16.6417C13.3405 16.5834 13.3198 16.5007 13.3236 16.4255C13.4326 14.1338 13.9421 11.5056 16.0026 10.1576C17.3919 9.24771 19.1666 9.36803 20.1103 10.8325C21.5467 13.0603 19.4054 15.8089 16.873 14.9911C16.2112 14.7768 15.6266 14.1883 15.6284 13.4608C15.886 13.6319 16.2263 13.7409 16.5346 13.6864C17.4896 13.5153 17.2885 11.9624 16.1981 12.1598C15.478 12.2895 14.993 13.0603 14.758 13.6958C14.4102 14.6358 14.3369 15.6904 14.3406 16.6868H16.0684V18.2604H13.1694C13.2578 19.4843 14.2128 20.4619 15.2487 21.0089C15.4273 21.1029 15.6491 21.1744 15.8127 21.2703C15.8258 21.2778 15.8484 21.2665 15.8352 21.3003C15.7939 21.4131 15.4611 21.6199 15.3446 21.6745C14.8106 21.9189 14.0286 21.9471 13.4947 21.697C13.3631 22.5411 12.8047 23.2179 12.0057 23.5131C11.2311 23.2198 10.6521 22.5468 10.5374 21.7158C9.86062 21.9621 8.86987 21.9358 8.30963 21.4376C8.27955 21.4113 8.13103 21.2853 8.20059 21.2703C9.48839 20.7627 10.7104 19.7155 10.8645 18.2604H7.96559V16.6868H9.6651C9.71774 16.6868 9.6745 16.5571 9.6745 16.5252C9.6369 15.2486 9.47899 12.7445 8.02951 12.2181C7.37151 11.9793 6.72103 12.4155 6.90151 13.1355C7.08199 13.8556 7.92235 13.8067 8.40927 13.4627C8.34911 14.4609 7.50499 15.0174 6.57628 15.1133C3.61341 15.4178 2.32373 11.6372 4.69064 10.0411C6.32248 8.93939 8.20623 9.92638 9.24399 11.3326C10.3626 12.8479 10.6765 14.8388 10.6953 16.6868H11.0413C11.0525 14.8388 10.8345 12.9569 9.9565 11.3101C9.42071 10.3043 8.67059 9.49775 8.40363 8.35095C7.94491 6.37696 8.75519 4.47628 9.8719 2.89521C10.4848 2.03041 11.218 1.22765 12.0095 0.524536C12.581 1.01709 13.1149 1.57733 13.5924 2.16389C15.0062 3.89349 16.2 6.20024 15.589 8.49759C15.2976 9.58987 14.5155 10.4396 14.006 11.4266C13.1751 13.0378 12.972 14.8914 12.9795 16.6887V16.685Z" fill="white"/>
</svg>
