<svg width="24" height="30" viewBox="0 0 24 30" fill="none" xmlns="http://www.w3.org/2000/svg">
<g clip-path="url(#clip0_644_627)">
<path d="M0.113455 28.6629C0.340299 28.9262 0.788314 29.4424 1.2023 29.6386C1.46317 29.7832 1.6333 29.9794 1.76941 29.9226C2.06998 29.7419 2.33652 29.2669 2.6144 29.0656C2.78453 28.952 3.48775 29.3237 3.68623 29.2772C4.70136 28.2292 5.55769 27.0057 6.53879 25.8389C7.58794 24.5483 8.59739 23.2989 9.0851 22.8394C9.11913 22.8188 9.15882 22.8446 9.20419 22.9169C9.41402 23.2163 9.63519 23.7532 10.0152 23.9184C10.3498 24.1714 10.9055 23.9907 11.3365 24.0991C11.4273 24.1972 11.3649 24.5431 11.3876 24.698C11.3308 25.8131 11.3705 25.524 12.5161 25.524C13.2136 25.5085 13.7297 25.4672 14.2118 25.8183C14.3082 25.937 14.1664 26.1435 14.1097 26.3294C13.7921 27.1244 13.5426 27.9969 13.3157 28.7971C13.2307 29.1327 13.1626 29.5663 13.2136 29.9535C13.259 30.0155 13.5709 29.9845 13.9339 29.9897C14.3025 29.9742 14.586 30.031 14.6881 29.9329C14.7902 29.8038 14.8526 29.6438 14.9944 29.5509C15.2949 29.4683 16.0832 29.7574 16.4178 29.5096C16.7297 29.4011 16.8431 29.0552 16.8658 28.8178C16.8545 28.7093 16.5653 28.7042 16.276 28.6422C15.9755 28.5803 15.7997 28.5803 15.76 28.4512C15.5218 27.46 16.3157 26.1745 16.4405 25.302C16.7581 23.81 17.0189 22.2457 17.1097 20.7021C17.1437 20.4853 17.1153 20.2013 17.2061 20.0258C17.3082 19.9122 17.6257 19.7677 17.9887 19.5509C18.3687 19.3082 18.6749 19.205 18.8847 18.9933C18.9358 18.8178 18.8847 18.6939 18.8847 18.4667C18.5218 14.1714 18.4367 11.3113 17.6031 7.7904C17.6768 7.51162 18.811 7.36707 18.9074 7.05215C18.9584 6.90243 18.8847 6.67011 18.9981 6.5617C19.2704 6.37584 19.8772 6.37584 20.1607 6.16934C20.518 5.95251 20.8583 5.55499 21.2099 5.4156C21.5274 5.28653 22.0095 5.24007 22.3894 5.06454C22.5993 4.91999 22.7184 4.32628 22.9282 4.14559C23.138 4.02685 23.6938 4.35726 23.9036 4.21787C24.0284 3.9649 23.3535 3.94425 23.2004 3.83067C23.0756 3.76872 23.0133 3.66547 23.1153 3.619C23.3082 3.56738 23.6201 3.59835 23.7959 3.47445C24.0511 3.3299 23.9206 3.19567 23.6598 3.29892C23.552 3.32473 23.3025 3.40217 23.2798 3.25762C23.2628 3.12339 23.6144 3.07177 23.8129 3.0253C24.0114 2.99949 24.1135 2.8601 23.8753 2.84977C23.7221 2.82396 23.2514 2.95819 23.2061 2.7775C23.2288 2.54518 24.0851 2.23542 23.9944 1.96697C23.9263 1.8792 23.6881 2.09087 23.5407 2.19928C23.2401 2.46258 22.7411 2.62262 22.3497 2.50904C22.0435 2.41611 21.7713 1.64688 21.3687 1.74497C21.2439 1.96697 21.76 2.43676 21.7997 2.59681C21.9301 2.82396 21.8847 3.26795 21.6465 3.46929C20.9887 3.69644 19.5312 3.5777 18.8847 3.83583C18.5671 4.05266 18.1532 4.20238 17.9206 4.49665C17.7505 4.77543 17.6541 4.99226 17.2911 5.13165C16.8545 5.41043 16.5199 4.9871 16.1569 5.37946C16.0719 5.45174 15.9641 5.52401 15.8564 5.56531C15.6182 5.57048 15.1532 5.42592 14.9944 5.1936C14.7278 4.84255 14.2118 4.36758 14.569 3.94941C14.8299 3.67579 15.397 3.46929 15.431 3.08209C15.414 2.80331 15.0057 2.23026 14.9773 1.95664C15.0057 1.84306 15.0908 1.78111 15.0397 1.66753C14.9774 1.56944 14.7562 1.53331 14.5577 1.48168C14.2628 1.42489 14.2968 1.19257 14.1664 1.02737C13.9112 0.79505 13.3894 0.862164 13.7467 0.449155C13.9169 -0.0258067 13.1626 0.0103316 12.8167 0.0154942C12.2779 -0.0619451 11.8639 0.283951 11.4329 0.490455C10.7127 0.800213 10.2023 1.33196 10.2874 2.08571C10.293 2.9014 10.3441 3.74807 10.4972 4.5586C10.6787 5.38978 11.6087 4.57409 12.1135 4.61023C12.1248 5.04905 11.4216 5.30202 10.9906 5.45174C10.4065 5.60661 9.82234 5.70987 9.2609 5.56531C9.20986 5.57564 9.10778 5.59113 9.06242 5.59629C8.80722 5.67889 8.85259 6.02995 8.71081 6.15385C8.60873 6.24162 8.40457 6.29324 8.32518 6.42747C8.22877 6.57719 8.18907 6.80434 8.15504 6.97987C8.06998 8.65772 8.07565 11.3268 7.98491 13.046C7.74105 15.2091 7.2023 17.5478 6.44805 19.4631C6.37432 19.6076 6.26657 19.7574 6.23255 19.9019C6.13047 20.2323 6.86771 20.4801 6.67489 20.8312C6.53879 21.0583 6.43104 21.4507 6.25523 21.6417C5.71648 22.0083 5.20041 22.5297 4.7524 23.0356C4.15126 23.9391 3.60117 25.0284 2.97168 25.8596C2.85259 26.0351 2.85259 26.2881 2.72782 26.443C2.37622 26.8095 1.74673 27.238 1.4178 27.5684C1.23633 27.682 1.33841 28.1053 1.10589 28.1982C0.816669 28.3067 0.306272 28.2292 0.0737579 28.4254C-0.0453347 28.508 0.0340604 28.6061 0.0907711 28.6474L0.124798 28.6784L0.113455 28.6629Z" fill="white"/>
</g>
<defs>
<clipPath id="clip0_644_627">
<rect width="24" height="30" fill="white"/>
</clipPath>
</defs>
</svg>
