<?xml version="1.0" encoding="UTF-8"?>
<svg version="1.1" xmlns="http://www.w3.org/2000/svg" width="24" height="24">
<path d="M0 0 C3.37462715 0.54723683 5.08235 1.0549 8 3 C8.99 2.01 9.98 1.02 11 0 C11.61875 0.33 12.2375 0.66 12.875 1 C14.91018344 2.14193235 14.91018344 2.14193235 17 2 C17.639375 1.67 18.27875 1.34 18.9375 1 C21 0 21 0 24 0 C23.75 2.8125 23.75 2.8125 23 6 C22.319375 6.45375 21.63875 6.9075 20.9375 7.375 C18.56052629 9.00228486 18.56052629 9.00228486 18.4375 12.875 C18.58910257 16.46073044 18.97609342 16.97250744 21.5 19.875 C22.325 20.57625 23.15 21.2775 24 22 C24 22.66 24 23.32 24 24 C21.50638429 22.79618552 19.31856917 21.54571278 17 20 C15.68 21.32 14.36 22.64 13 24 C10.53199953 22.84826645 8.95216435 21.95216435 7 20 C6.21625 20.66 5.4325 21.32 4.625 22 C2 24 2 24 0 24 C0.98152096 21.81045325 1.72637183 20.23532022 3.5625 18.65625 C5.47225723 16.45587754 5.31212706 15.17892236 5.1875 12.3125 C5.16042969 11.50425781 5.13335938 10.69601562 5.10546875 9.86328125 C5.07066406 9.24839844 5.03585938 8.63351562 5 8 C4.35546875 7.73445312 3.7109375 7.46890625 3.046875 7.1953125 C2.37140625 6.80085937 1.6959375 6.40640625 1 6 C0.25 2.875 0.25 2.875 0 0 Z " fill="#FFFFFF" transform="translate(0,0)"/>
</svg>
